<svg id="SvgjsSvg1001" width="288" height="288" xmlns="http://www.w3.org/2000/svg" version="1.1" xmlns:xlink="http://www.w3.org/1999/xlink" xmlns:svgjs="http://svgjs.com/svgjs"><defs id="SvgjsDefs1002"></defs><g id="SvgjsG1008" transform="matrix(1,0,0,1,0,0)"><svg xmlns="http://www.w3.org/2000/svg" enable-background="new 0 0 24 24" viewBox="0 0 24 24" width="288" height="288"><path fill="#0b766b" d="M8.824,7.751c0,0-1.195-0.48-2.597,0.046C4.96,8.271,3.922,9.31,4.004,11.92V24c0,0,1.305-1.603,2.841-3.236c1.716-1.841,2.499-3.083,4.262-2.938c3.338,0.207,5.752-1.275,7.393-3.647c3.15-4.562,0.683-9.659-1.433-10.344c0,0.003,0.34,1.441-0.748,1.64c-0.756,0.132-1.979-0.617-2.594-1.364c-0.76-0.922-0.661-1.649-0.075-2.29c0.885-0.98,2.406-0.601,2.406-0.601s-2.782-2.43-5.677-0.438c-2.577,1.77-1.837,4.181,0.49,6.287c2.095,1.902,0.422,3.988-1.694,3.719c-1.444-0.184-2.036-1.344-1.692-2.055C7.784,8.125,8.824,7.751,8.824,7.751L8.824,7.751z" class="svgShape colore82f25-0 selectable"></path><path fill="#00ffe6" d="M12,0.081c-0.524,0.106-1.07,0.325-1.621,0.704c-2.577,1.77-1.837,4.181,0.49,6.287c1.972,1.79,0.607,3.742-1.324,3.742c-0.121,0-0.244-0.008-0.37-0.023c-1.444-0.184-2.036-1.344-1.692-2.055c0.301-0.611,1.34-0.985,1.34-0.985s-0.499-0.2-1.23-0.2c-0.401,0-0.871,0.06-1.368,0.246C4.96,8.271,3.922,9.31,4.004,11.92V24c0,0,1.305-1.603,2.841-3.236c1.624-1.743,2.413-2.949,3.989-2.949c0.089,0,0.18,0.004,0.274,0.012c0.208,0.013,0.412,0.019,0.613,0.019c0.094,0,0.187-0.001,0.28-0.004V0.081L12,0.081z" class="svgShape colorca2920-1 selectable"></path></svg></g></svg>